Encoded By......:UnKnOwN                                                     Release Date....:2011
Runtime ........:1:40                                                        Source..........:Whats A Source?
IMDb URL .......:http://www.imdb.com/title/tt1591095/                        Type............:Single MP4
Language........:English                                               
File Size.......:2.12gb                                                      Genre  .........:Thriller/Horror


Movie name                       : INSIDIOUS
Performer                        : Boo
Writing application              : TMPGEnc Video Mastering  6 Beta  Version. 


Video
ID                               : 2
Format                           : AVC
Format/Info                      : Advanced Video Codec
Format profile                   : High@L3.1
Format settings, CABAC           : Yes
Format settings, ReFrames        : 5 frames
Codec ID                         : avc1
Codec ID/Info                    : Advanced Video Coding
Duration                         : 1h 39mn
Bit rate mode                    : Constant
Bit rate                         : 2 500 Kbps / 2 500 Kbps
Width                            : 1 280 pixels
Height                           : 536 pixels
Display aspect ratio             : 2.35:1
Frame rate mode                  : Constant
Frame rate                       : 23.976 fps
Standard                         : NTSC
Color space                      : YUV
Chroma subsampling               : 4:2:0
Bit depth                        : 8 bits
Scan type                        : Progressive
Bits/(Pixel*Frame)               : 0.152
Stream size                      : 1.72 GiB (81%)
Writing library                  : x264 core 112

Audio
ID                               : 1
Format                           : AAC
Format/Info                      : Advanced Audio Codec
Format version                   : Version 4
Format profile                   : Main
Codec ID                         : 40
Duration                         : 1h 40mn
Bit rate mode                    : Variable
Bit rate                         : 576 Kbps
Maximum bit rate                 : 1 728 Kbps
Channel(s)                       : 6 channels
Channel positions                : Front: L C R, Side: L R, LFE
Sampling rate                    : 48.0 KHz
Stream size                      : 409 MiB (19%)
                

SYSPNOSIS
A family looks to prevent evil spirits from trapping their comatose child in a realm called The Further.   


RELEASE INFO
                                    
Chopped Ending Credits
it works on the ps3











